<svg width="24" height="24" viewBox="0 0 24 24" fill="none" xmlns="http://www.w3.org/2000/svg">
<path d="M2 8V10C2 13.771 2.001 15.656 3.172 16.828C4.343 18 6.229 18 10 18H13H13C13.943 18 14.414 18 14.707 17.707C15 17.414 15 16.943 15 16V14C15 10.229 14.999 8.344 13.828 7.172C12.657 6 10.771 6 7 6H4C3.057 6 2.586 6 2.293 6.293C2 6.586 2 7.057 2 8Z" stroke="black" stroke-width="1.5" stroke-linecap="round" stroke-linejoin="round"/>
<path d="M18.6 8.395L17.9 9.07C17.012 9.927 17 9.955 17 11.177V12.823C17 14.045 17.012 14.074 17.9 14.93L18.6 15.605C20.049 17.003 20.774 17.702 21.387 17.449C22 17.196 22 16.197 22 14.2V9.8C22 7.803 22 6.804 21.387 6.551C20.7747 6.29829 20.0517 6.9954 18.605 8.3902L18.6 8.395Z" stroke="black" stroke-width="1.5" stroke-linecap="round" stroke-linejoin="round"/>
</svg>
